<svg width="192" height="25" viewBox="0 0 192 25" fill="none" xmlns="http://www.w3.org/2000/svg">
<path d="M11.572 14.284C10.6947 13.6867 9.808 13.388 8.912 13.388C8.42667 13.388 7.96933 13.472 7.54 13.64C7.12933 13.808 6.76533 14.0507 6.448 14.368C6.13067 14.6667 5.87867 15.0307 5.692 15.46C5.524 15.8707 5.44 16.3373 5.44 16.86C5.44 17.364 5.524 17.8307 5.692 18.26C5.87867 18.6707 6.12133 19.0347 6.42 19.352C6.73733 19.6507 7.11067 19.884 7.54 20.052C7.96933 20.22 8.42667 20.304 8.912 20.304C9.864 20.304 10.7507 19.9773 11.572 19.324V23.636C10.3213 24.1773 9.136 24.448 8.016 24.448C6.97067 24.448 5.972 24.2707 5.02 23.916C4.08667 23.5613 3.256 23.0573 2.528 22.404C1.81867 21.732 1.24933 20.9387 0.82 20.024C0.390667 19.0907 0.176 18.0547 0.176 16.916C0.176 15.7773 0.381333 14.7413 0.792 13.808C1.20267 12.856 1.76267 12.044 2.472 11.372C3.18133 10.6813 4.02133 10.1493 4.992 9.776C5.98133 9.384 7.036 9.188 8.156 9.188C9.388 9.188 10.5267 9.44933 11.572 9.972V14.284ZM15.1735 0.759999H20.2415V11.456C20.9322 10.616 21.6322 10.056 22.3415 9.776C23.0508 9.47733 23.8815 9.328 24.8335 9.328C26.6442 9.328 28.0068 9.832 28.9215 10.84C29.8548 11.8293 30.3215 13.1733 30.3215 14.872V24H25.2535V16.748C25.2535 16.02 25.1975 15.432 25.0855 14.984C24.9735 14.536 24.7868 14.1907 24.5255 13.948C24.0775 13.556 23.5362 13.36 22.9015 13.36C22.0428 13.36 21.3802 13.6213 20.9135 14.144C20.4655 14.648 20.2415 15.376 20.2415 16.328V24H15.1735V0.759999ZM38.8353 9.636V24H33.7673V9.636H38.8353ZM33.4313 4.12C33.4313 3.728 33.5059 3.364 33.6553 3.028C33.8046 2.67333 34.0099 2.36533 34.2713 2.104C34.5326 1.84266 34.8313 1.63733 35.1673 1.488C35.5219 1.33867 35.8953 1.264 36.2873 1.264C36.6793 1.264 37.0433 1.33867 37.3793 1.488C37.7339 1.63733 38.0419 1.84266 38.3033 2.104C38.5646 2.36533 38.7699 2.67333 38.9193 3.028C39.0686 3.364 39.1433 3.728 39.1433 4.12C39.1433 4.512 39.0686 4.88533 38.9193 5.24C38.7699 5.576 38.5646 5.87467 38.3033 6.136C38.0419 6.39733 37.7339 6.60267 37.3793 6.752C37.0433 6.90133 36.6793 6.976 36.2873 6.976C35.8953 6.976 35.5219 6.90133 35.1673 6.752C34.8313 6.60267 34.5326 6.39733 34.2713 6.136C34.0099 5.87467 33.8046 5.576 33.6553 5.24C33.5059 4.88533 33.4313 4.512 33.4313 4.12ZM51.8185 13.332C50.8852 12.8467 49.9705 12.604 49.0745 12.604C48.6078 12.604 48.2252 12.6973 47.9265 12.884C47.6465 13.0707 47.5065 13.3227 47.5065 13.64C47.5065 13.808 47.5252 13.948 47.5625 14.06C47.6185 14.1533 47.7212 14.2467 47.8705 14.34C48.0385 14.4333 48.2718 14.5173 48.5705 14.592C48.8878 14.6667 49.2985 14.76 49.8025 14.872C51.2025 15.152 52.2478 15.656 52.9385 16.384C53.6292 17.0933 53.9745 18.008 53.9745 19.128C53.9745 19.968 53.8065 20.724 53.4705 21.396C53.1345 22.068 52.6678 22.6373 52.0705 23.104C51.4732 23.552 50.7545 23.8973 49.9145 24.14C49.0745 24.4013 48.1505 24.532 47.1425 24.532C45.2012 24.532 43.2878 23.9813 41.4025 22.88L43.2505 19.296C44.6692 20.2667 46.0132 20.752 47.2825 20.752C47.7492 20.752 48.1318 20.6493 48.4305 20.444C48.7292 20.2387 48.8785 19.9773 48.8785 19.66C48.8785 19.4733 48.8505 19.324 48.7945 19.212C48.7572 19.0813 48.6638 18.9693 48.5145 18.876C48.3652 18.764 48.1412 18.6707 47.8425 18.596C47.5625 18.5027 47.1892 18.4093 46.7225 18.316C45.1545 17.9987 44.0532 17.532 43.4185 16.916C42.8025 16.2813 42.4945 15.4133 42.4945 14.312C42.4945 13.5093 42.6438 12.7907 42.9425 12.156C43.2412 11.5027 43.6705 10.952 44.2305 10.504C44.7905 10.056 45.4625 9.71067 46.2465 9.468C47.0492 9.22533 47.9358 9.104 48.9065 9.104C50.4932 9.104 52.0332 9.412 53.5265 10.028L51.8185 13.332ZM62.5834 13.864V24H57.5154V13.864H55.8354V9.636H57.5154V5.324H62.5834V9.636H65.4674V13.864H62.5834ZM72.3502 16.776C72.3502 17.2427 72.4342 17.6813 72.6022 18.092C72.7702 18.484 72.9942 18.8293 73.2742 19.128C73.5728 19.4267 73.9182 19.66 74.3102 19.828C74.7208 19.996 75.1595 20.08 75.6262 20.08C76.0742 20.08 76.4942 19.996 76.8862 19.828C77.2968 19.66 77.6422 19.4267 77.9222 19.128C78.2208 18.8293 78.4542 18.484 78.6222 18.092C78.8088 17.7 78.9022 17.28 78.9022 16.832C78.9022 16.384 78.8088 15.964 78.6222 15.572C78.4542 15.1613 78.2208 14.8067 77.9222 14.508C77.6422 14.2093 77.2968 13.976 76.8862 13.808C76.4942 13.64 76.0742 13.556 75.6262 13.556C75.1595 13.556 74.7208 13.64 74.3102 13.808C73.9182 13.976 73.5728 14.2093 73.2742 14.508C72.9942 14.8067 72.7702 15.152 72.6022 15.544C72.4342 15.9173 72.3502 16.328 72.3502 16.776ZM78.7342 9.636H83.8302V24H78.7342V22.404C77.6515 23.7667 76.1862 24.448 74.3382 24.448C73.2928 24.448 72.3315 24.2613 71.4542 23.888C70.5768 23.496 69.8115 22.9547 69.1582 22.264C68.5048 21.5733 67.9915 20.7613 67.6182 19.828C67.2635 18.8947 67.0862 17.8773 67.0862 16.776C67.0862 15.7493 67.2635 14.7787 67.6182 13.864C67.9728 12.9307 68.4675 12.1187 69.1022 11.428C69.7368 10.7373 70.4928 10.196 71.3702 9.804C72.2475 9.39333 73.2182 9.188 74.2822 9.188C76.0742 9.188 77.5582 9.81333 78.7342 11.064V9.636ZM91.983 16.776C91.983 17.2427 92.067 17.6813 92.235 18.092C92.403 18.484 92.627 18.8293 92.907 19.128C93.2056 19.4267 93.551 19.66 93.943 19.828C94.3536 19.996 94.7923 20.08 95.259 20.08C95.707 20.08 96.127 19.996 96.519 19.828C96.9296 19.66 97.275 19.4267 97.555 19.128C97.8536 18.8293 98.087 18.484 98.255 18.092C98.4416 17.7 98.535 17.28 98.535 16.832C98.535 16.384 98.4416 15.964 98.255 15.572C98.087 15.1613 97.8536 14.8067 97.555 14.508C97.275 14.2093 96.9296 13.976 96.519 13.808C96.127 13.64 95.707 13.556 95.259 13.556C94.811 13.556 94.3816 13.64 93.971 13.808C93.579 13.976 93.2336 14.2093 92.935 14.508C92.655 14.8067 92.4216 15.152 92.235 15.544C92.067 15.9173 91.983 16.328 91.983 16.776ZM98.367 0.759999H103.463V24H98.367V22.404C97.2843 23.7667 95.819 24.448 93.971 24.448C92.9256 24.448 91.9643 24.252 91.087 23.86C90.2096 23.468 89.4443 22.9267 88.791 22.236C88.1376 21.5453 87.6243 20.7333 87.251 19.8C86.8963 18.8667 86.719 17.8587 86.719 16.776C86.719 15.7493 86.887 14.7787 87.223 13.864C87.5776 12.9307 88.0723 12.1187 88.707 11.428C89.3416 10.7373 90.0976 10.196 90.975 9.804C91.871 9.39333 92.851 9.188 93.915 9.188C95.707 9.188 97.191 9.81333 98.367 11.064V0.759999ZM111.616 16.776C111.616 17.2427 111.7 17.6813 111.868 18.092C112.036 18.484 112.26 18.8293 112.54 19.128C112.838 19.4267 113.184 19.66 113.576 19.828C113.986 19.996 114.425 20.08 114.892 20.08C115.34 20.08 115.76 19.996 116.152 19.828C116.562 19.66 116.908 19.4267 117.188 19.128C117.486 18.8293 117.72 18.484 117.888 18.092C118.074 17.7 118.168 17.28 118.168 16.832C118.168 16.384 118.074 15.964 117.888 15.572C117.72 15.1613 117.486 14.8067 117.188 14.508C116.908 14.2093 116.562 13.976 116.152 13.808C115.76 13.64 115.34 13.556 114.892 13.556C114.425 13.556 113.986 13.64 113.576 13.808C113.184 13.976 112.838 14.2093 112.54 14.508C112.26 14.8067 112.036 15.152 111.868 15.544C111.7 15.9173 111.616 16.328 111.616 16.776ZM118 9.636H123.096V24H118V22.404C116.917 23.7667 115.452 24.448 113.604 24.448C112.558 24.448 111.597 24.2613 110.72 23.888C109.842 23.496 109.077 22.9547 108.424 22.264C107.77 21.5733 107.257 20.7613 106.884 19.828C106.529 18.8947 106.352 17.8773 106.352 16.776C106.352 15.7493 106.529 14.7787 106.884 13.864C107.238 12.9307 107.733 12.1187 108.368 11.428C109.002 10.7373 109.758 10.196 110.636 9.804C111.513 9.39333 112.484 9.188 113.548 9.188C115.34 9.188 116.824 9.81333 118 11.064V9.636ZM132.201 13.864V24H127.133V13.864H125.453V9.636H127.133V5.324H132.201V9.636H135.085V13.864H132.201ZM141.967 16.776C141.967 17.2427 142.051 17.6813 142.219 18.092C142.387 18.484 142.611 18.8293 142.891 19.128C143.19 19.4267 143.535 19.66 143.927 19.828C144.338 19.996 144.777 20.08 145.243 20.08C145.691 20.08 146.111 19.996 146.503 19.828C146.914 19.66 147.259 19.4267 147.539 19.128C147.838 18.8293 148.071 18.484 148.239 18.092C148.426 17.7 148.519 17.28 148.519 16.832C148.519 16.384 148.426 15.964 148.239 15.572C148.071 15.1613 147.838 14.8067 147.539 14.508C147.259 14.2093 146.914 13.976 146.503 13.808C146.111 13.64 145.691 13.556 145.243 13.556C144.777 13.556 144.338 13.64 143.927 13.808C143.535 13.976 143.19 14.2093 142.891 14.508C142.611 14.8067 142.387 15.152 142.219 15.544C142.051 15.9173 141.967 16.328 141.967 16.776ZM148.351 9.636H153.447V24H148.351V22.404C147.269 23.7667 145.803 24.448 143.955 24.448C142.91 24.448 141.949 24.2613 141.071 23.888C140.194 23.496 139.429 22.9547 138.775 22.264C138.122 21.5733 137.609 20.7613 137.235 19.828C136.881 18.8947 136.703 17.8773 136.703 16.776C136.703 15.7493 136.881 14.7787 137.235 13.864C137.59 12.9307 138.085 12.1187 138.719 11.428C139.354 10.7373 140.11 10.196 140.987 9.804C141.865 9.39333 142.835 9.188 143.899 9.188C145.691 9.188 147.175 9.81333 148.351 11.064V9.636ZM156.644 21.312C156.644 20.864 156.728 20.444 156.896 20.052C157.064 19.6413 157.297 19.2867 157.596 18.988C157.895 18.6893 158.24 18.456 158.632 18.288C159.043 18.12 159.472 18.036 159.92 18.036C160.368 18.036 160.788 18.12 161.18 18.288C161.591 18.456 161.945 18.6893 162.244 18.988C162.543 19.2867 162.776 19.6413 162.944 20.052C163.112 20.444 163.196 20.864 163.196 21.312C163.196 21.76 163.112 22.1893 162.944 22.6C162.776 22.992 162.543 23.3373 162.244 23.636C161.945 23.9347 161.591 24.168 161.18 24.336C160.788 24.504 160.368 24.588 159.92 24.588C159.472 24.588 159.043 24.504 158.632 24.336C158.24 24.168 157.895 23.9347 157.596 23.636C157.297 23.3373 157.064 22.992 156.896 22.6C156.728 22.1893 156.644 21.76 156.644 21.312ZM171.48 9.636V24H166.412V9.636H171.48ZM166.076 4.12C166.076 3.728 166.15 3.364 166.3 3.028C166.449 2.67333 166.654 2.36533 166.916 2.104C167.177 1.84266 167.476 1.63733 167.812 1.488C168.166 1.33867 168.54 1.264 168.932 1.264C169.324 1.264 169.688 1.33867 170.024 1.488C170.378 1.63733 170.686 1.84266 170.948 2.104C171.209 2.36533 171.414 2.67333 171.564 3.028C171.713 3.364 171.788 3.728 171.788 4.12C171.788 4.512 171.713 4.88533 171.564 5.24C171.414 5.576 171.209 5.87467 170.948 6.136C170.686 6.39733 170.378 6.60267 170.024 6.752C169.688 6.90133 169.324 6.976 168.932 6.976C168.54 6.976 168.166 6.90133 167.812 6.752C167.476 6.60267 167.177 6.39733 166.916 6.136C166.654 5.87467 166.449 5.576 166.3 5.24C166.15 4.88533 166.076 4.512 166.076 4.12ZM179.731 16.748C179.731 17.2333 179.815 17.6813 179.983 18.092C180.17 18.484 180.403 18.8293 180.683 19.128C180.982 19.4267 181.327 19.66 181.719 19.828C182.13 19.996 182.559 20.08 183.007 20.08C183.455 20.08 183.875 19.996 184.267 19.828C184.678 19.66 185.023 19.4267 185.303 19.128C185.602 18.8293 185.835 18.484 186.003 18.092C186.19 17.6813 186.283 17.2427 186.283 16.776C186.283 16.328 186.19 15.908 186.003 15.516C185.835 15.1053 185.602 14.7507 185.303 14.452C185.023 14.1533 184.678 13.92 184.267 13.752C183.875 13.584 183.455 13.5 183.007 13.5C182.559 13.5 182.13 13.584 181.719 13.752C181.327 13.92 180.982 14.1533 180.683 14.452C180.403 14.7507 180.17 15.096 179.983 15.488C179.815 15.88 179.731 16.3 179.731 16.748ZM174.383 16.692C174.383 15.628 174.598 14.6387 175.027 13.724C175.456 12.7907 176.054 11.988 176.819 11.316C177.584 10.6253 178.49 10.084 179.535 9.692C180.599 9.3 181.756 9.104 183.007 9.104C184.239 9.104 185.378 9.3 186.423 9.692C187.487 10.0653 188.402 10.5973 189.167 11.288C189.951 11.96 190.558 12.772 190.987 13.724C191.416 14.6573 191.631 15.6933 191.631 16.832C191.631 17.9707 191.407 19.016 190.959 19.968C190.53 20.9013 189.932 21.7133 189.167 22.404C188.402 23.076 187.478 23.5987 186.395 23.972C185.331 24.3453 184.174 24.532 182.923 24.532C181.691 24.532 180.552 24.3453 179.507 23.972C178.462 23.5987 177.556 23.0667 176.791 22.376C176.044 21.6853 175.456 20.864 175.027 19.912C174.598 18.9413 174.383 17.868 174.383 16.692Z" fill="#fff"/>
</svg>
